<svg width="527" height="302" viewBox="0 0 527 302" fill="none" xmlns="http://www.w3.org/2000/svg">
	<g clip-path="url(#clip0_47_5277)">
		<path d="M544.547 71.0859C544.547 72.24 543.602 73.1717 542.461 73.1717H114.347C53.6065 73.1717 4.19952 122.384 4.17171 182.902V182.943C4.19952 243.683 53.6065 293.076 114.347 293.076C114.444 293.076 114.527 293.076 114.625 293.09H250.15C251.29 293.09 252.235 294.022 252.235 295.176C252.235 296.33 251.29 297.262 250.15 297.262H114.68C114.597 297.262 114.513 297.262 114.444 297.234C114.416 297.248 114.374 297.248 114.347 297.248H113.943C51.0895 297.026 0.0278114 245.839 0 182.943V182.902C0.0278114 120.09 51.312 69 114.347 69H542.461C543.602 69 544.547 69.9317 544.547 71.0859Z" fill="#D3E6C3" />
		<path d="M544.547 93.766C544.547 94.9202 543.602 95.8519 542.461 95.8519H114.347C66.1633 95.8519 26.9631 134.899 26.9353 182.902V182.943C26.9631 231.127 66.1633 270.313 114.347 270.313C114.43 270.313 114.527 270.313 114.611 270.341H250.15C251.29 270.341 252.235 271.272 252.235 272.426C252.235 273.581 251.29 274.512 250.15 274.512H114.5C114.388 274.512 114.291 274.498 114.194 274.485C114.027 274.485 113.86 274.484 113.707 274.471H113.693C63.5073 274.123 22.7914 233.198 22.7636 182.943V182.902C22.7914 132.591 63.855 91.6802 114.347 91.6802H542.461C543.602 91.6802 544.547 92.6119 544.547 93.766Z" fill="#D3E6C3" />
		<path d="M544.547 115.528C544.547 116.683 543.602 117.614 542.461 117.614H114.347C78.4281 117.614 49.1984 146.733 49.1984 182.526C49.1984 182.665 49.1844 182.79 49.1566 182.915C49.1566 182.929 49.1566 182.943 49.1566 182.943C49.1844 183.068 49.1984 183.194 49.1984 183.333C49.1984 219.084 78.1639 248.189 113.846 248.453C114.055 248.384 114.277 248.342 114.5 248.342H249.969C251.109 248.342 252.055 249.273 252.055 250.428C252.055 251.582 251.109 252.514 249.969 252.514H115C114.819 252.583 114.625 252.625 114.43 252.625C114.402 252.639 114.374 252.639 114.347 252.639C76.1198 252.639 45.0266 221.546 45.0266 183.333C45.0266 183.194 45.0406 183.068 45.0684 182.943C45.0684 182.943 45.0684 182.929 45.0684 182.915C45.0406 182.79 45.0266 182.665 45.0266 182.526C45.0266 144.438 76.1198 113.443 114.347 113.443H542.461C543.602 113.443 544.547 114.388 544.547 115.528Z" fill="#D3E6C3" />
		<path d="M544.547 137.833C544.547 138.973 543.602 139.919 542.461 139.919H114.347C90.8459 139.919 71.7117 158.97 71.7117 182.387C71.7117 182.568 71.6839 182.763 71.6282 182.929C71.6839 183.096 71.7117 183.291 71.7117 183.472C71.7117 206.805 90.5678 225.815 113.846 226.093C114.055 226.009 114.277 225.968 114.5 225.968H249.969C251.109 225.968 252.055 226.899 252.055 228.053C252.055 229.208 251.109 230.139 249.969 230.139H115C114.819 230.209 114.625 230.25 114.43 230.25C114.402 230.264 114.374 230.264 114.347 230.264C88.5376 230.264 67.54 209.267 67.54 183.472C67.54 183.291 67.5678 183.096 67.6234 182.929C67.5678 182.763 67.54 182.568 67.54 182.387C67.54 156.662 88.5376 135.747 114.347 135.747H542.461C543.602 135.747 544.547 136.679 544.547 137.833Z" fill="#D3E6C3" />
		<path d="M249.969 184.862H114.5C113.345 184.862 112.414 183.931 112.414 182.776C112.414 181.622 113.345 180.691 114.5 180.691H249.955C251.109 180.691 252.041 181.622 252.041 182.776C252.041 183.931 251.109 184.862 249.969 184.862Z" fill="#D3E6C3" />
		<path d="M544.547 160.666C544.547 161.821 543.602 162.752 542.461 162.752H114.347C103.18 162.752 94.0999 171.791 94.072 182.902V182.943C94.0999 193.943 102.916 202.912 113.86 203.162C114.027 203.176 114.18 203.176 114.347 203.176H249.969C251.095 203.176 252.027 204.08 252.055 205.206V205.262C252.055 206.416 251.109 207.348 249.969 207.348H114.347C100.9 207.348 89.9421 196.418 89.9003 182.971V182.888C89.9282 169.483 100.886 158.58 114.347 158.58H542.461C543.602 158.58 544.547 159.526 544.547 160.666Z" fill="#D3E6C3" />
	</g>
	<path d="M245.591 302C327.555 302 394 298.087 394 293.259C394 288.432 327.555 284.519 245.591 284.519C163.627 284.519 97.1821 288.432 97.1821 293.259C97.1821 298.087 163.627 302 245.591 302Z" fill="#D3E6C3" />
	<path d="M187.419 297.343C233.779 295.712 281.735 289.378 306.562 203.861C313.946 178.437 309.147 159.19 301.044 144.678C299.043 141.089 296.84 137.805 294.57 134.778C293.716 133.642 292.85 132.54 291.985 131.471C273.868 109.231 243.489 101.255 216.55 111.087C201.445 116.599 182.069 124.744 164.795 135.341C130.089 156.636 121.941 180.901 110.601 222.546C109.624 226.123 108.657 230.128 107.915 234.391C107.522 236.664 107.196 239.015 106.971 241.4C104.454 268.038 114.715 299.896 187.419 297.343Z" fill="#39393B" />
	<path d="M106.971 241.411C108.511 245.742 110.702 250.152 113.625 254.337C122.391 266.913 140.654 282.1 177.832 283.09C179.473 283.135 181.08 283.157 182.676 283.157C196.882 283.157 209.413 281.436 220.866 277.938C232.846 274.282 243.298 268.747 252.829 261.052C268.754 248.183 281.893 229.363 295.39 200.036C300.729 188.449 303.494 176.705 303.606 165.129C303.673 158.233 302.819 151.382 301.032 144.7C299.032 141.112 296.829 137.827 294.559 134.801C295.132 136.128 295.694 137.523 296.222 138.974C301.077 152.305 304.426 173.521 292.772 198.832C269.069 250.321 241.59 281.886 177.9 280.221C141.913 279.276 124.358 264.731 115.973 252.705C111.59 246.428 109.118 240.072 107.904 234.414C107.522 236.675 107.196 239.015 106.971 241.411Z" fill="#585859" />
	<path d="M173.292 83.5939C173.292 83.5939 144.183 123.124 137.541 142.822C130.899 162.519 147.015 176.502 147.015 176.502L161.985 182.127C161.985 182.116 177.371 112.583 173.292 83.5939Z" fill="#084FC7" />
	<path d="M175.854 194.321C188.576 198.54 219.663 209.609 233.161 205.132C233.734 204.941 234.262 204.727 234.768 204.479C236.24 203.759 237.42 202.792 238.252 201.532C243.546 193.466 248.794 159.617 246.434 139.728C246.142 137.242 245.996 134.542 245.951 131.707C245.883 127.534 246.018 123.068 246.198 118.579C246.861 101.683 249.525 90.0173 242.298 85.9113C235.813 82.2215 227.609 79.3416 222.383 78.093C219.146 77.3168 213.841 75.6969 210.121 75.7643L194.027 78.6892C194.027 78.6892 180.136 81.0065 176.933 83.3802C173.73 85.7425 172.089 96.1707 166.301 105.721C160.513 115.272 159.254 124.857 164.784 135.341C169.594 144.464 168.751 140.999 169.38 155.961C170.156 174.297 151.016 186.087 175.854 194.321Z" fill="#D3E6C3" />
	<g opacity="0.8">
		<g opacity="0.8">
			<path opacity="0.8" d="M218.595 108.41C218.595 108.41 201.153 103.899 178.889 108.061L178.349 123.462C178.349 123.462 202.827 120.739 218.247 124.665L218.595 108.41Z" fill="#CED3E6" />
		</g>
	</g>
	<g opacity="0.8">
		<path opacity="0.8" d="M198.557 95.4057C198.793 95.4057 199.029 95.3945 199.276 95.3832C208.806 94.8882 217.55 86.4737 217.91 86.1138C218.168 85.8663 218.168 85.45 217.921 85.1913C217.674 84.9326 217.258 84.9326 216.999 85.1801C216.91 85.2588 208.244 93.6171 199.208 94.0783C190.554 94.5395 189.509 85.945 189.464 85.5738C189.419 85.2138 189.105 84.9551 188.745 85.0001C188.385 85.0338 188.127 85.36 188.172 85.72C188.172 85.8213 189.318 95.4057 198.557 95.4057Z" fill="#CED3E6" />
	</g>
	<g opacity="0.8">
		<path opacity="0.8" d="M225.563 172.509C225.631 172.453 225.687 172.396 225.743 172.318C225.934 171.991 225.833 171.575 225.519 171.384C213.122 163.869 201.231 161.226 193.443 160.326C184.98 159.347 179.529 160.134 179.304 160.179C178.933 160.236 178.675 160.584 178.731 160.956C178.787 161.327 179.136 161.586 179.507 161.529C179.563 161.518 185.047 160.731 193.342 161.698C200.984 162.587 212.661 165.197 224.822 172.565C225.058 172.689 225.35 172.666 225.563 172.509Z" fill="#CED3E6" />
	</g>
	<path d="M209.368 200.452C220.821 196.819 231.183 189.507 238.252 182.993C238.814 182.476 239.354 181.969 239.871 181.463C243.534 177.897 246.119 179.731 247.243 177.683C251.525 169.843 249.098 139.076 247.243 127.77C245.389 116.476 253.177 95.7769 248.985 88.3749C244.793 80.9728 230.351 78.3854 230.351 78.3854C230.351 78.3854 232.397 76.0006 228.519 73.267C224.642 70.5334 214.325 71.6696 214.325 71.6696C213.83 120.571 206.907 165.984 209.368 200.452Z" fill="#0875F7" />
	<path d="M220.63 186.435C220.944 186.435 221.214 186.21 221.259 185.895C226.474 151.979 221.315 88.1724 221.259 87.5312C221.225 87.1824 220.922 86.9237 220.573 86.9462C220.225 86.98 219.955 87.2837 219.989 87.6324C220.045 88.2736 225.181 151.922 219.989 185.693C219.933 186.042 220.18 186.368 220.528 186.424C220.562 186.435 220.596 186.435 220.63 186.435Z" fill="#D3E6C3" />
	<path d="M210.144 191.52C210.447 191.52 210.717 191.306 210.773 190.991C217.595 152.035 218.135 84.8088 218.135 84.1339C218.135 83.7851 217.854 83.4926 217.505 83.4926C217.157 83.4926 216.865 83.7739 216.865 84.1226C216.865 84.7976 216.314 151.911 209.514 190.766C209.458 191.115 209.683 191.441 210.031 191.509C210.076 191.52 210.11 191.52 210.144 191.52Z" fill="#084FC7" />
	<path d="M221.461 83.7514C221.517 83.7514 221.574 83.7401 221.63 83.7289C227.025 82.289 230.329 79.1054 230.475 78.9704C230.722 78.7229 230.733 78.318 230.486 78.0705C230.239 77.823 229.834 77.8117 229.587 78.0592C229.553 78.093 226.373 81.1528 221.315 82.5027C220.978 82.5927 220.776 82.9414 220.866 83.2902C220.922 83.5601 221.18 83.7514 221.461 83.7514Z" fill="#084FC7" />
	<path d="M159.749 179.101C159.749 179.101 163.828 192.859 179.023 199.417C180.912 162.114 185.182 119.513 190.701 74.2007C190.701 74.2007 184.89 73.177 182.474 76.5068C181.429 77.9355 181.204 80.3653 181.204 80.3653C181.204 80.3653 178.237 80.939 174.989 82.4577C171.741 83.9764 172.112 86.0575 171.336 91.3447C170.561 96.6319 162.401 104.81 159.749 115.891C157.096 126.971 164.132 134.036 166.324 143.339C168.526 152.62 159.749 179.101 159.749 179.101Z" fill="#0875F7" />
	<path d="M172.797 184.872C173.145 184.872 173.426 184.602 173.438 184.253C174.91 133.507 184.171 88.1611 184.261 87.7112C184.328 87.3624 184.115 87.0249 183.766 86.9574C183.418 86.89 183.081 87.1037 183.013 87.4524C182.923 87.9024 173.64 133.35 172.168 184.219C172.156 184.568 172.437 184.872 172.786 184.872C172.786 184.872 172.786 184.872 172.797 184.872Z" fill="#D3E6C3" />
	<path d="M186.778 85.1576C187.082 85.1576 187.351 84.9326 187.408 84.6288C187.464 84.2801 187.228 83.9539 186.891 83.8864C186.846 83.8751 182.755 83.1327 181.822 80.1741C181.721 79.8366 181.361 79.6454 181.024 79.7579C180.687 79.8591 180.507 80.2191 180.608 80.5566C181.788 84.2689 186.486 85.1126 186.677 85.1463C186.711 85.1463 186.744 85.1576 186.778 85.1576Z" fill="#084FC7" />
	<path d="M174.281 184.872C174.595 184.872 174.876 184.636 174.91 184.309C179.406 146.894 186.508 87.1037 186.576 86.5075C186.621 86.1587 186.362 85.8438 186.014 85.7988C185.666 85.7538 185.351 86.0125 185.306 86.3612C185.238 86.9574 178.136 146.759 173.64 184.163C173.595 184.512 173.842 184.827 174.202 184.872C174.236 184.872 174.258 184.872 174.281 184.872Z" fill="#084FC7" />
	<path d="M212.032 211.735C210.088 213.13 207.031 214.581 202.434 216.044C176.36 224.346 152.455 210.948 152.455 210.948C151.005 203.804 151.904 195.682 154.309 192.713C153.556 191.655 154.051 190.395 154.051 190.395L130.056 165.467C143.7 176.784 160.58 180.485 173.719 188.438C173.719 188.438 173.719 188.438 173.73 188.438C177.517 190.733 180.923 192.746 183.418 194.141C187.228 196.279 192.083 196.492 196.848 195.829C206.131 194.546 215.033 189.968 215.033 189.968C215.033 189.968 244.917 176.412 250.514 176.862C254.863 177.211 231.419 201.701 212.032 211.735Z" fill="#21B573" />
	<path d="M165.851 232.637C165.851 232.637 173.539 230.42 175.91 227.923L181.26 240.522L163.064 246.203C163.053 246.203 162.806 235.134 165.851 232.637Z" fill="#EA9B7A" />
	<path d="M121.941 269.028L145.464 216.775C146.341 216.707 147.442 216.944 148.679 217.394C153.241 219.059 159.659 223.648 163.784 226.337C164.267 226.652 164.716 226.944 165.132 227.203C165.829 227.631 166.425 227.968 166.874 228.182C170.504 229.813 168.594 231.77 168.594 231.77C161.828 235.156 165.953 245.191 161.828 247.531C161.828 247.531 160.075 248.554 154.478 251.018C148.881 253.482 143.25 259.432 138.035 264.303C131.303 270.603 127.077 271.334 124.661 270.761C122.728 270.311 121.941 269.028 121.941 269.028Z" fill="#EBB12B" />
	<path d="M121.941 269.028L145.464 216.775C146.341 216.707 147.442 216.944 148.679 217.394L124.661 270.761C122.728 270.311 121.941 269.028 121.941 269.028Z" fill="#C77E2E" />
	<path d="M143.059 222.107L143.756 220.555C144.824 222.906 146.892 225.572 150.848 227.136C156.119 229.205 160.996 227.676 163.772 226.348C164.256 226.663 164.705 226.956 165.121 227.214C162.3 228.733 156.669 230.893 150.353 228.418C146.577 226.911 144.352 224.458 143.059 222.107Z" fill="#C77E2E" />
	<path d="M151.792 248.746C151.96 248.363 152.387 248.127 152.826 248.206C153.343 248.296 153.68 248.791 153.59 249.308L152.927 252.942C152.837 253.459 152.342 253.797 151.825 253.707C151.308 253.617 150.971 253.122 151.061 252.604L151.724 248.971C151.735 248.892 151.758 248.813 151.792 248.746Z" fill="#D3E6C3" />
	<path d="M155.961 246.732C156.13 246.349 156.557 246.113 156.995 246.192C157.512 246.282 157.849 246.777 157.76 247.294L157.096 250.928C157.006 251.445 156.512 251.783 155.995 251.693C155.478 251.603 155.141 251.108 155.231 250.59L155.894 246.957C155.905 246.867 155.928 246.799 155.961 246.732Z" fill="#D3E6C3" />
	<path d="M148.42 251.153C148.589 250.77 149.016 250.534 149.454 250.613C149.971 250.703 150.308 251.198 150.218 251.715L149.555 255.349C149.465 255.866 148.971 256.204 148.454 256.114C147.937 256.024 147.6 255.529 147.69 255.011L148.353 251.378C148.364 251.299 148.386 251.22 148.42 251.153Z" fill="#D3E6C3" />
	<path d="M145.127 253.594C145.296 253.212 145.723 252.975 146.161 253.054C146.678 253.144 147.015 253.639 146.925 254.157L146.262 257.79C146.172 258.308 145.678 258.645 145.161 258.555C144.644 258.465 144.307 257.97 144.397 257.453L145.06 253.819C145.082 253.74 145.105 253.662 145.127 253.594Z" fill="#D3E6C3" />
	<path d="M141.845 256.395C142.014 256.013 142.441 255.776 142.879 255.855C143.396 255.945 143.733 256.44 143.644 256.958L142.98 260.591C142.891 261.109 142.396 261.446 141.879 261.356C141.362 261.266 141.025 260.771 141.115 260.254L141.778 256.62C141.789 256.541 141.812 256.463 141.845 256.395Z" fill="#D3E6C3" />
	<path d="M138.665 259.612C138.833 259.23 139.26 258.994 139.699 259.073C140.216 259.162 140.553 259.657 140.463 260.175L139.8 263.808C139.71 264.326 139.215 264.663 138.698 264.573C138.181 264.483 137.844 263.988 137.934 263.471L138.597 259.837C138.62 259.747 138.642 259.68 138.665 259.612Z" fill="#D3E6C3" />
	<path d="M250.502 176.862C250.502 176.862 269.417 166.648 280.364 174.545C300.392 188.989 266.405 216.764 227.519 230.33C188.633 243.897 176.011 242.041 176.011 242.041C176.011 242.041 167.56 239.712 170.561 226.011C170.561 226.011 192.971 217.484 204.637 208.552C216.314 199.608 224.26 188.663 250.502 176.862Z" fill="#21B573" />
	<path d="M172.089 229.993C180.248 228.036 196.859 220.397 216.539 209.587C231.262 201.498 248.232 191.16 250.727 187.572C252.076 185.637 252.413 184.051 251.739 182.858C250.727 181.081 247.805 180.901 246.479 180.912C246.142 180.912 245.872 181.204 245.895 181.542C245.917 181.857 246.176 182.093 246.49 182.093C247.794 182.082 250.075 182.307 250.716 183.443C251.255 184.388 250.491 185.839 249.761 186.885C247.749 189.776 233.543 198.888 215.977 208.54C200.849 216.854 181.305 226.551 171.819 228.834L172.089 229.993Z" fill="#217C58" />
	<path d="M173.629 224.188C174.55 231.388 176.416 237.935 180.473 242.963C180.473 242.963 176.989 245.472 173.809 243.672C171.381 242.3 166.694 231.05 168.481 225.043C170.516 223.93 172.269 223.536 173.629 224.188Z" fill="#217C58" />
	<path d="M222.967 231.208C222.967 231.208 215.235 229.712 213.043 227.057L206.873 239.262L224.642 246.147C224.653 246.158 225.844 233.908 222.967 231.208Z" fill="#EA9B7A" />
	<path d="M264.146 271.683L244.164 217.979C243.287 217.844 242.186 218.012 240.916 218.384C236.252 219.745 229.542 223.885 225.249 226.303C224.743 226.584 224.282 226.843 223.844 227.068C223.113 227.451 222.507 227.754 222.034 227.923C218.303 229.307 219.854 230.364 219.854 230.364C227.204 233.818 221.821 244.955 225.777 247.576C225.777 247.576 227.463 248.712 232.88 251.547C238.297 254.382 243.523 260.692 248.401 265.901C254.695 272.628 258.864 273.652 261.314 273.235C263.27 272.909 264.146 271.683 264.146 271.683Z" fill="#EBB12B" />
	<path d="M264.146 271.683L244.164 217.979C243.287 217.844 242.186 218.012 240.916 218.384L261.325 273.235C263.27 272.909 264.146 271.683 264.146 271.683Z" fill="#C77E2E" />
	<path d="M246.209 223.457L245.614 221.86C244.389 224.132 242.152 226.663 238.095 227.946C232.7 229.667 227.935 227.811 225.249 226.292C224.743 226.573 224.282 226.832 223.844 227.057C226.552 228.767 232.037 231.298 238.499 229.239C242.377 228.024 244.759 225.707 246.209 223.457Z" fill="#C77E2E" />
	<path d="M235.723 249.454C235.577 249.061 235.173 248.791 234.734 248.847C234.217 248.903 233.846 249.376 233.903 249.893L234.319 253.56C234.375 254.078 234.847 254.449 235.364 254.393C235.881 254.336 236.252 253.864 236.195 253.347L235.78 249.679C235.768 249.601 235.746 249.522 235.723 249.454Z" fill="#D3E6C3" />
	<path d="M231.689 247.159C231.543 246.766 231.138 246.496 230.7 246.552C230.183 246.608 229.812 247.081 229.868 247.598L230.284 251.265C230.34 251.783 230.812 252.154 231.329 252.098C231.846 252.042 232.217 251.569 232.161 251.052L231.745 247.384C231.734 247.306 231.711 247.227 231.689 247.159Z" fill="#D3E6C3" />
	<path d="M238.915 252.087C238.769 251.693 238.364 251.434 237.926 251.479C237.409 251.535 237.038 252.008 237.095 252.525L237.51 256.193C237.567 256.71 238.039 257.081 238.556 257.025C239.073 256.969 239.443 256.496 239.387 255.979L238.971 252.312C238.96 252.233 238.938 252.154 238.915 252.087Z" fill="#D3E6C3" />
	<path d="M242.04 254.741C241.893 254.348 241.489 254.089 241.051 254.134C240.534 254.19 240.163 254.663 240.219 255.18L240.635 258.848C240.691 259.365 241.163 259.736 241.68 259.68C242.197 259.624 242.568 259.151 242.512 258.634L242.096 254.966C242.085 254.888 242.062 254.809 242.04 254.741Z" fill="#D3E6C3" />
	<path d="M245.13 257.756C244.984 257.363 244.58 257.104 244.141 257.149C243.624 257.205 243.253 257.678 243.31 258.195L243.725 261.862C243.782 262.38 244.254 262.751 244.771 262.695C245.288 262.639 245.658 262.166 245.602 261.649L245.186 257.981C245.175 257.903 245.153 257.824 245.13 257.756Z" fill="#D3E6C3" />
	<path d="M248.086 261.165C247.94 260.771 247.535 260.501 247.097 260.557C246.58 260.614 246.209 261.086 246.265 261.604L246.681 265.271C246.737 265.788 247.209 266.16 247.726 266.103C248.243 266.047 248.614 265.575 248.558 265.057L248.142 261.39C248.131 261.311 248.109 261.244 248.086 261.165Z" fill="#D3E6C3" />
	<path d="M137.766 168.56C137.766 168.56 119.873 156.647 108.241 163.509C86.966 176.052 118.266 206.831 155.748 223.907C193.218 240.984 205.963 240.297 205.963 240.297C205.963 240.297 214.583 238.756 212.864 224.829C212.864 224.829 191.33 214.278 180.529 204.311C169.729 194.355 162.817 182.723 137.766 168.56Z" fill="#21B573" />
	<path d="M170.493 230.33C172.561 231.005 174.651 231.692 176.821 232.378C185.205 235.021 194.78 237.789 203.445 239.915L203.479 241.152C195.657 239.24 186.464 236.653 176.472 233.503C174.517 232.884 172.527 232.243 170.527 231.579L170.493 230.33Z" fill="#217C58" />
	<path d="M210.975 228.665C203.03 225.966 187.183 216.842 168.583 204.266C154.669 194.861 138.71 183.004 136.563 179.202C135.405 177.155 135.203 175.546 135.99 174.421C137.159 172.745 140.081 172.824 141.407 172.959C141.744 172.992 141.991 173.307 141.935 173.645C141.879 173.949 141.609 174.162 141.295 174.14C139.991 174.016 137.709 174.027 136.956 175.096C136.338 175.985 136.956 177.503 137.586 178.617C139.317 181.677 152.635 192.049 169.246 203.287C183.541 212.95 202.119 224.402 211.358 227.552L210.975 228.665Z" fill="#217C58" />
	<path d="M209.986 222.748C208.413 229.835 205.952 236.18 201.445 240.815C201.445 240.815 204.682 243.638 208.008 242.131C210.548 240.984 216.246 230.207 215.021 224.065C213.1 222.771 211.391 222.231 209.986 222.748Z" fill="#217C58" />
	<path d="M212.403 165.928L213.841 186.48C213.841 186.48 238.263 182.993 250.244 179.933C253.728 179.045 257.65 177.897 261.247 175.985C267.866 172.464 273.351 166.333 272.946 154.386C272.823 150.55 272.081 146.118 270.575 140.966C261.854 111.121 247.243 86.0575 247.243 86.0575C228.441 94.112 230.025 107.521 230.025 107.521C235.386 121.842 247.243 152.339 247.243 152.339C240.354 160.764 212.403 165.928 212.403 165.928Z" fill="#0875F7" />
	<path d="M247.243 152.98C247.356 152.98 247.479 152.946 247.58 152.879C249.66 151.596 255.313 150.258 255.369 150.246C255.717 150.168 255.931 149.819 255.841 149.481C255.762 149.133 255.414 148.93 255.077 149.009C254.874 149.054 250.907 149.988 248.288 151.112C248.671 150.258 249.3 149.346 250.165 148.356C250.401 148.086 250.368 147.693 250.109 147.456C249.839 147.22 249.446 147.254 249.21 147.513C247.704 149.223 246.85 150.775 246.614 152.249C246.569 152.496 246.681 152.744 246.884 152.879C246.996 152.946 247.12 152.98 247.243 152.98Z" fill="#084FC7" />
	<path d="M261.236 175.985C267.855 172.464 273.34 166.333 272.935 154.386C267.698 157.131 258.561 163.791 261.236 175.985Z" fill="#084FC7" />
	<path d="M227.755 162.767C227.811 162.767 227.856 162.756 227.912 162.744C240.005 159.617 247.356 153.092 247.659 152.811C247.873 152.62 247.929 152.305 247.805 152.046C239.174 135.071 233.723 121.594 230.632 109.625C230.542 109.287 230.194 109.074 229.857 109.164C229.52 109.254 229.306 109.602 229.396 109.94C232.487 121.898 237.904 135.318 246.445 152.17C244.816 153.52 237.892 158.841 227.598 161.496C227.261 161.586 227.047 161.934 227.137 162.272C227.216 162.576 227.474 162.767 227.755 162.767Z" fill="#084FC7" />
	<path d="M232.599 119.153C232.734 119.153 232.88 119.108 232.992 119.018C233.273 118.793 233.318 118.399 233.093 118.118L228.609 112.482C228.384 112.201 227.991 112.156 227.71 112.381C227.429 112.606 227.384 113 227.609 113.281L232.093 118.917C232.228 119.063 232.408 119.153 232.599 119.153Z" fill="#084FC7" />
	<path d="M211.695 67.3498L190.004 70.4547C175.91 69.0485 171.426 63.4351 169.122 51.5783C167.964 45.6161 168.729 40.3514 169.864 36.4366C170.156 31.9819 171.179 28.1346 173.28 25.5923C182.8 14.1067 191.184 14.5566 191.184 14.5566C195.443 12.5993 209.514 11.2606 218.798 22.5437C219.09 22.7912 224.754 28.7983 226.058 41.3976C227.317 53.4119 219.303 68.756 211.695 67.3498Z" fill="#39393B" />
	<path d="M199.579 17.7065C199.579 17.7065 197.32 -2.31738 215.078 0.224975C226.676 1.87863 233.858 17.6165 223.248 24.7598C212.639 31.9031 199.579 17.7065 199.579 17.7065Z" fill="#39393B" />
	<path d="M221.461 26.8184C221.551 26.8184 221.641 26.7959 221.731 26.7509C222.001 26.6047 222.102 26.256 221.956 25.986C217.842 18.5052 211.976 15.1979 207.784 13.7354C203.232 12.1605 199.692 12.3518 199.546 12.3518C199.231 12.3743 198.995 12.633 199.017 12.948C199.04 13.263 199.298 13.4992 199.613 13.4767C199.748 13.4655 213.448 12.8355 220.967 26.5259C221.079 26.7059 221.27 26.8184 221.461 26.8184Z" fill="#EBB12B" />
	<path d="M209.998 62.8276C209.998 62.8276 223.833 55.0768 221.113 38.9452C218.393 22.8137 207.784 13.1055 191.521 17.7852C191.51 17.7852 193.094 64.4138 209.998 62.8276Z" fill="#39393B" />
	<path d="M171.516 33.1631C171.516 33.1631 170.1 47.011 172.628 49.0134C175.146 51.0158 177.619 45.5374 177.619 45.5374C177.619 45.5374 174.179 33.3206 171.516 33.1631Z" fill="#39393B" />
	<path d="M177.888 50.2733C177.888 50.2733 173.764 46.651 172.392 51.0945C171.021 55.538 173.797 63.7163 178.933 61.5452L177.888 50.2733Z" fill="#D46A43" />
	<path d="M172.808 60.5327C173.37 61.0502 174 61.5002 174.685 61.8714C177.281 63.2663 180.664 63.4351 184.733 61.2977C184.733 61.2977 189.936 54.5256 182.249 42.5788C182.249 42.5788 175.202 40.7226 171.167 44.9861C170.718 45.4586 170.313 45.9986 169.954 46.6285C169.729 47.011 169.538 47.4272 169.358 47.8772C167.919 51.5108 169.257 57.3042 172.808 60.5327Z" fill="#21B573" />
	<path d="M172.988 43.535C172.662 41.9376 172.336 39.9577 172.123 37.7641C172.224 37.8091 172.325 37.8428 172.437 37.8428C172.876 37.8765 173.303 37.6966 173.73 37.3816C173.921 39.429 174.213 41.2851 174.505 42.8263L172.988 43.535Z" fill="#D3E6C3" />
	<path d="M172.808 60.5327C173.37 61.0502 174 61.5002 174.685 61.8714C171.122 54.4806 171.021 47.731 171.167 44.9861C170.718 45.4586 170.313 45.9986 169.954 46.6285C169.954 49.7334 170.414 54.8406 172.808 60.5327Z" fill="#217C58" />
	<path d="M189.914 70.2522L191.611 81.704C191.611 81.704 198.613 90.6922 214.819 76.0343C212.976 71.3771 210.144 65.3812 210.874 60.7915C210.874 60.7915 209.694 61.8827 207.649 63.1763C207.233 63.4463 206.783 63.7276 206.311 64.0088C202.108 66.5736 195.679 69.8472 189.914 70.2522Z" fill="#EA9B7A" />
	<path d="M189.914 70.2522L190.712 75.6069C195.443 73.7845 203.625 69.8359 207.66 63.1651C207.244 63.4351 206.795 63.7163 206.323 63.9975C202.108 66.5736 195.679 69.8472 189.914 70.2522Z" fill="#39393B" />
	<path d="M174.371 50.7795C174.55 51.9607 174.719 53.0744 174.899 54.1319C176.202 62.0289 177.394 66.2811 179.585 67.9686C190.678 76.4843 210.234 61.4327 210.863 60.949C210.874 60.9377 210.874 60.9377 210.874 60.9377C210.942 60.0153 210.987 59.1041 211.009 58.2154C211.268 50.6108 210.335 43.7262 208.604 37.3028C207.941 30.362 202.895 24.5573 196.073 23.1624C189.003 21.7225 183.429 25.5698 179.979 27.2122C174.775 29.7095 172.392 37.2803 173.854 47.3372C174.033 48.5409 174.202 49.6996 174.371 50.7795Z" fill="#EA9B7A" />
	<path d="M184.283 59.9815C190.487 59.9815 192.971 54.0419 192.993 53.9744C193.106 53.6819 192.971 53.3557 192.679 53.2432C192.386 53.1307 192.06 53.2657 191.948 53.5581C191.836 53.8169 189.24 59.9815 182.474 58.6766C182.17 58.6203 181.878 58.8228 181.811 59.1266C181.754 59.4303 181.957 59.7228 182.26 59.7903C182.979 59.9253 183.654 59.9815 184.283 59.9815Z" fill="#39393B" />
	<path d="M189.06 38.5403C187.464 37.989 187.79 35.6379 189.476 35.5254C192.341 35.3342 196.949 35.4129 197.331 37.7303C197.893 41.1164 192.544 39.7102 189.161 38.574C189.116 38.5628 189.093 38.5515 189.06 38.5403Z" fill="#39393B" />
	<path d="M180.597 39.5415C181.833 38.394 180.586 36.3691 179.001 36.9541C176.304 37.944 172.112 39.8677 172.696 42.14C173.539 45.4699 177.877 42.0163 180.518 39.6202C180.552 39.5864 180.574 39.564 180.597 39.5415Z" fill="#39393B" />
	<path d="M188.857 62.7601C187.722 63.0413 186.767 62.8276 186.7 62.8051C186.497 62.7601 186.374 62.5576 186.419 62.3551C186.464 62.1526 186.666 62.0289 186.868 62.0739C186.891 62.0739 188.745 62.4901 190.15 61.2527C190.307 61.1177 190.543 61.129 190.678 61.2864C190.813 61.4439 190.802 61.6802 190.644 61.8152C190.071 62.3326 189.442 62.6139 188.857 62.7601Z" fill="#D46A43" />
	<path d="M184.969 55.0431C185.07 54.9981 185.137 54.9081 185.182 54.8068C185.25 54.5931 185.137 54.3568 184.924 54.2893L182.215 53.4007L183.822 51.7695C183.912 51.6795 183.957 51.5558 183.935 51.432L183.44 46.9435C183.418 46.7185 183.215 46.5498 182.979 46.5835C182.755 46.606 182.586 46.8085 182.62 47.0335L183.103 51.3195L181.17 53.2769C181.069 53.3782 181.024 53.5244 181.058 53.6594C181.091 53.7944 181.193 53.9069 181.327 53.9519L184.654 55.0656C184.755 55.0993 184.868 55.0881 184.969 55.0431Z" fill="#39393B" />
	<path d="M191.982 50.7458C192.117 51.6795 194.151 52.1407 196.511 51.792C198.871 51.4433 200.681 50.3971 200.535 49.4634C200.4 48.5297 198.365 48.0685 196.005 48.4172C193.645 48.7772 191.847 49.8234 191.982 50.7458Z" fill="#D46A43" />
	<g opacity="0.8">
		<g opacity="0.8">
			<g opacity="0.8">
				<g opacity="0.8">
					<g opacity="0.8">
						<g opacity="0.8">
							<g opacity="0.8">
								<g opacity="0.8">
									<g opacity="0.8">
										<g opacity="0.8">
											<g opacity="0.8">
												<path opacity="0.8" d="M174.371 51.8707C174.55 53.0519 174.719 54.1656 174.899 55.223C177.057 54.8181 178.641 53.8394 178.506 52.9732C178.383 52.0845 176.562 51.6232 174.371 51.8707Z" fill="#D46A43" />
											</g>
										</g>
									</g>
								</g>
							</g>
						</g>
					</g>
				</g>
			</g>
		</g>
	</g>
	<path d="M189.678 47.416C189.869 48.6984 190.599 49.6434 191.319 49.5421C192.038 49.4409 192.454 48.3159 192.274 47.0335C192.083 45.7511 191.352 44.8061 190.633 44.9074C189.914 45.0086 189.487 46.1336 189.678 47.416Z" fill="#39393B" />
	<path d="M177.034 49.2946C177.225 50.5771 177.956 51.522 178.675 51.4208C179.394 51.3195 179.81 50.1946 179.63 48.9122C179.439 47.6297 178.709 46.6848 177.989 46.786C177.27 46.8985 176.854 48.0235 177.034 49.2946Z" fill="#39393B" />
	<path d="M205.929 56.3817C206.008 56.5167 208.267 60.1615 210.863 60.949C210.874 60.9377 210.874 60.9377 210.874 60.9377C210.942 60.0153 210.987 59.1041 211.009 58.2154C210.919 58.2041 208.424 58.1479 205.929 56.3817Z" fill="#39393B" />
	<path d="M206.952 47.146C206.952 47.146 211.043 39.519 215.583 44.3562C219.326 48.3384 215.28 61.0502 208.391 57.6529L206.952 47.146Z" fill="#EA9B7A" />
	<path d="M208.919 55.5718C209.188 55.5268 209.38 55.3018 209.368 55.0206C209.166 49.7334 213.246 47.281 213.414 47.1798C213.662 47.0335 213.751 46.7073 213.605 46.4486C213.459 46.1898 213.133 46.1111 212.875 46.2573C212.684 46.3698 208.065 49.1259 208.301 55.0656C208.312 55.358 208.559 55.583 208.851 55.5718C208.874 55.5718 208.896 55.5718 208.919 55.5718Z" fill="#39393B" />
	<path d="M213.347 51.657C213.504 51.6345 213.639 51.5445 213.729 51.3983C213.875 51.1508 213.796 50.8245 213.538 50.6671C213.302 50.5321 211.2 49.3171 209.683 49.9583C209.413 50.0708 209.29 50.3858 209.402 50.6558C209.514 50.9258 209.829 51.0495 210.099 50.937C210.975 50.5658 212.526 51.297 212.998 51.5782C213.111 51.6457 213.234 51.6682 213.347 51.657Z" fill="#39393B" />
	<path d="M184.261 49.6434C182.732 45.6386 184.744 41.1389 188.745 39.6089C192.746 38.079 197.242 40.0927 198.77 44.0974C200.299 48.1022 198.287 52.6019 194.286 54.1319C190.285 55.6618 185.789 53.6481 184.261 49.6434ZM185.317 49.2384C186.621 52.6582 190.465 54.3793 193.881 53.0744C197.298 51.7695 199.017 47.9222 197.714 44.5024C196.41 41.0826 192.566 39.3615 189.15 40.6664C185.733 41.9713 184.013 45.8186 185.317 49.2384Z" fill="#D3E6C3" />
	<path d="M198.523 45.1324C198.59 45.1324 198.658 45.1099 198.725 45.0761C202.928 43.1525 206.873 44.6149 206.918 44.6374C207.21 44.7499 207.536 44.6037 207.649 44.3112C207.761 44.0187 207.615 43.6925 207.323 43.58C207.143 43.5125 202.883 41.9263 198.253 44.0524C197.972 44.1874 197.848 44.5249 197.972 44.8061C198.084 45.0199 198.298 45.1436 198.523 45.1324Z" fill="#D3E6C3" />
	<path d="M167.065 51.5895C165.537 47.5847 167.549 43.085 171.55 41.5551C175.551 40.0252 180.046 42.0388 181.575 46.0436C183.103 50.0483 181.091 54.5481 177.09 56.078C173.101 57.6079 168.594 55.5943 167.065 51.5895ZM168.133 51.1845C169.437 54.6043 173.28 56.3255 176.697 55.0206C180.114 53.7156 181.833 49.8684 180.529 46.4486C179.226 43.0288 175.382 41.3076 171.965 42.6125C168.538 43.9175 166.818 47.7647 168.133 51.1845Z" fill="#D3E6C3" />
	<path d="M184.62 46.3473C184.71 46.3023 184.778 46.2348 184.834 46.1448C185.002 45.8748 184.924 45.5261 184.654 45.3574C184.575 45.3124 182.687 44.1537 180.72 45.6611C180.473 45.8523 180.428 46.2123 180.619 46.4598C180.81 46.7073 181.17 46.7523 181.417 46.561C182.766 45.5261 184.047 46.3136 184.058 46.3136C184.238 46.4373 184.452 46.4373 184.62 46.3473Z" fill="#D3E6C3" />
	<path d="M180.462 20.2376C175.742 22.3637 172.033 26.301 170.381 31.2057C169.347 34.2768 168.481 38.3378 172.797 37.809C184.575 36.3804 190.88 24.1411 190.88 24.1411C190.88 24.1411 193.173 35.4129 202.423 34.0405C211.672 32.6568 211.38 25.6822 206.12 21.7337C201.838 18.5052 190.925 15.5128 180.462 20.2376Z" fill="#39393B" />
	<path d="M202.063 32.7356C202.063 32.7356 207.323 38.394 205.435 44.4799C203.547 50.5658 203.423 55.448 205.39 58.7216C205.39 58.7216 205.895 52.3095 208.244 47.4497C210.166 43.4562 211.964 40.4189 210.571 35.8179C209.616 32.6681 207.312 29.6308 202.063 32.7356Z" fill="#39393B" />
	<path d="M210.616 60.3527C214.695 61.3427 217.854 60.769 220.191 59.2953C220.562 59.0591 220.911 58.8003 221.248 58.5304C226.148 54.4243 226.508 45.9086 223.507 41.7351C222.45 40.2614 221.225 39.2715 219.933 38.6415C219.539 38.439 219.146 38.2815 218.753 38.1578C213.684 36.4929 208.188 39.5415 208.188 39.5415C202.434 55.358 210.616 60.3527 210.616 60.3527Z" fill="#21B573" />
	<path d="M196.264 67.2711C208.188 64.83 213.257 56.2355 213.493 55.8193C213.684 55.493 213.572 55.0656 213.234 54.8743C212.909 54.6831 212.481 54.7956 212.29 55.1331C212.212 55.268 206.019 65.6849 191.566 66.4724C191.184 66.4949 190.892 66.8211 190.914 67.2036C190.937 67.5861 191.263 67.8786 191.645 67.8561C193.285 67.7661 194.825 67.5636 196.264 67.2711Z" fill="#D3E6C3" />
	<path d="M187.767 67.6761C188.014 68.8685 189.183 69.6447 190.375 69.3972C191.566 69.1497 192.341 67.9798 192.094 66.7874C191.847 65.5949 190.678 64.8187 189.487 65.0662C188.295 65.3137 187.52 66.4724 187.767 67.6761Z" fill="#243434" />
	<path d="M220.191 59.2953C220.562 59.0591 220.911 58.8003 221.248 58.5304C217.471 49.9808 218.753 42.5113 219.944 38.6415C219.551 38.439 219.157 38.2815 218.764 38.1578C217.483 42.2525 216.1 50.2283 220.191 59.2953Z" fill="#217C58" />
	<path d="M171.786 27.9996C172.786 26.121 173.898 24.8723 174.449 24.2536C174.91 22.9149 175.404 21.655 176.146 20.4851C178.641 16.5253 182.586 14.0954 187.891 13.2742C193.611 12.3855 198.579 13.5217 202.647 16.6378C203.917 17.6052 205.041 18.7414 206.053 19.9563C207.446 21.655 208.604 23.5336 209.548 25.4123C212.83 31.9819 213.617 38.7315 213.628 38.8215L215.19 38.6528C215.123 38.0115 213.358 22.8474 203.614 15.3778C199.197 11.9918 193.825 10.7544 187.655 11.7106C181.878 12.5993 177.562 15.2766 174.82 19.6414C173.213 22.1612 172.28 25.0523 171.786 27.9996Z" fill="#D3E6C3" />
	<path d="M231.082 201.116L236.521 190.766C237.881 188.19 235.982 185.097 233.071 185.119L147.622 186.042L150.14 199.293L231.082 201.116Z" fill="#39393B" />
	<path d="M151.623 198.202H228.092C229.935 198.202 231.273 196.706 231.059 194.861L225.844 147.569C225.642 145.724 223.979 144.228 222.136 144.228H145.667C143.823 144.228 142.486 145.724 142.699 147.569L147.914 194.861C148.117 196.706 149.78 198.202 151.623 198.202Z" fill="#39393B" />
	<path d="M229.227 200.238C229.25 200.238 229.284 200.238 229.306 200.238C229.654 200.193 229.913 199.867 229.868 199.518L223.518 148.874C223.473 148.525 223.147 148.266 222.799 148.311C222.45 148.356 222.192 148.683 222.237 149.031L228.587 199.676C228.632 200.002 228.913 200.238 229.227 200.238Z" fill="#564C54" />
	<path d="M192.027 172.059C192.319 175.861 189.52 179.135 185.789 179.371C182.047 179.607 178.776 176.727 178.484 172.925C178.192 169.123 180.99 165.849 184.721 165.613C188.464 165.377 191.735 168.256 192.027 172.059Z" fill="#585859" />
	<path d="M151.252 202.32H228.778C230.486 202.32 231.79 200.812 231.565 199.125L230.823 193.714H147.622L148.465 199.878C148.656 201.285 149.847 202.32 151.252 202.32Z" fill="#39393B" />
	<path d="M204.468 187.065L204.187 183.859H206.738L206.12 180.923H209.503L210.121 183.859H212.212L211.594 180.923H214.976L215.595 183.859H218.55L218.831 187.077H216.28L216.842 189.776H219.798L220.079 192.983H217.528L218.146 195.919H214.763L214.145 192.983H212.054L212.672 195.919H209.29L208.671 192.983H205.716L205.435 189.776H207.986L207.424 187.077L204.468 187.065ZM211.369 189.754H213.459L212.897 187.054H210.807L211.369 189.754Z" fill="#EBB12B" />
	<path d="M130.179 112.313C130.179 123.968 120.739 133.429 109.084 133.429C97.4406 133.429 88 123.968 88 112.313C88 100.659 97.4406 91.1985 109.095 91.1985C120.739 91.1985 130.179 100.659 130.179 112.313Z" fill="#DF615C" />
	<path d="M119.873 129.581L131.213 131.977L126.302 122.202L119.873 129.581Z" fill="#DF615C" />
	<path d="M110.86 107.78C110.86 106.79 109.905 106.284 108.724 106.284C107.353 106.284 106.083 107.116 105.409 108.455L99.7334 105.62C101.363 102.56 104.577 100.457 109.68 100.457C114.681 100.457 118.412 102.56 118.412 106.554C118.412 111.436 113.31 112.291 113.31 114.755H106.746C106.758 110.874 110.86 109.726 110.86 107.78ZM105.825 119.772C105.825 117.634 107.544 116.003 110.028 116.003C112.512 116.003 114.231 117.634 114.231 119.772C114.231 121.875 112.512 123.597 110.028 123.597C107.544 123.597 105.825 121.887 105.825 119.772Z" fill="#D3E6C3" />
	<path d="M339.829 232.299C339.829 232.299 348.449 218.744 369.364 206.426C384.144 197.73 392.753 173.161 392.753 173.161C392.753 173.161 364.442 174.399 352.135 191.644C339.829 208.889 339.829 232.299 339.829 232.299Z" fill="#21B573" />
	<path d="M339.728 232.659C339.919 232.659 340.087 232.535 340.132 232.344C344.111 217.304 352.821 206.403 359.429 199.901C366.588 192.859 372.871 189.338 372.938 189.304C373.141 189.192 373.219 188.933 373.107 188.73C372.995 188.528 372.736 188.449 372.534 188.562C372.466 188.595 366.083 192.173 358.845 199.305C352.158 205.874 343.347 216.91 339.323 232.13C339.267 232.355 339.402 232.592 339.626 232.648C339.66 232.648 339.694 232.659 339.728 232.659Z" fill="#39393B" />
	<path d="M343.538 231.984C343.538 231.984 345.999 227.057 357.08 228.283C368.162 229.52 374.31 235.674 394 224.582C394 224.582 379.232 212.264 363.228 214.728C347.224 217.202 345.999 223.367 343.538 231.984Z" fill="#21B573" />
	<path d="M343.481 232.412C343.616 232.412 343.762 232.344 343.841 232.209C343.886 232.13 348.842 224.335 356.811 222.883C370.736 220.352 380.221 224.807 380.311 224.852C380.525 224.953 380.772 224.863 380.873 224.649C380.974 224.436 380.884 224.188 380.671 224.087C380.57 224.042 370.859 219.464 356.653 222.051C348.314 223.57 343.324 231.422 343.122 231.759C342.998 231.962 343.054 232.22 343.257 232.344C343.324 232.389 343.403 232.412 343.481 232.412Z" fill="#39393B" />
	<path d="M338.705 230.792C338.705 230.792 339.671 225.369 330.051 219.734C320.431 214.098 311.822 215.358 302.639 194.692C302.639 194.692 321.835 193.635 333.198 205.177C344.56 216.73 341.874 222.411 338.705 230.792Z" fill="#21B573" />
	<path d="M338.739 231.253C338.952 231.253 339.143 231.084 339.154 230.87C339.188 230.477 339.874 221.196 334.086 214.998C324.229 204.434 313.71 202.297 313.609 202.275C313.384 202.23 313.159 202.376 313.114 202.612C313.069 202.837 313.215 203.062 313.451 203.107C313.552 203.129 323.813 205.222 333.479 215.571C339.008 221.5 338.334 230.713 338.323 230.803C338.3 231.039 338.48 231.242 338.705 231.253C338.716 231.253 338.727 231.253 338.739 231.253Z" fill="#39393B" />
	<path d="M327.365 237.496H354.338C355.934 237.496 357.227 236.191 357.227 234.605V233.39C357.227 231.793 355.923 230.499 354.338 230.499H327.365C325.769 230.499 324.477 231.804 324.477 233.39V234.605C324.477 236.191 325.78 237.496 327.365 237.496Z" fill="#DF615C" />
	<path d="M340.728 297.815C362.734 297.815 376.737 294.305 374.489 278.793C373.062 268.949 365.386 259.297 359.969 253.56C359.205 252.75 358.485 252.019 357.845 251.378C355.833 249.398 354.484 248.251 354.484 248.251L354.417 247.891L354.035 245.708L353.596 243.2L352.585 237.474L352.236 235.471L340.728 234.965L328.725 235.471L328.455 237.474L328.028 240.612L327.331 245.697L327.028 247.879L326.983 248.239C326.983 248.239 325.623 249.387 323.622 251.367C322.971 252.008 322.251 252.739 321.487 253.549C316.07 259.286 308.394 268.927 306.966 278.781C304.719 294.317 318.722 297.815 340.728 297.815Z" fill="#DF615C" />
	<path d="M327.028 247.902H354.428L354.046 245.72H327.32L327.028 247.902Z" fill="#A92F4B" />
	<path d="M321.487 253.56H359.98C359.216 252.75 358.497 252.019 357.856 251.378H323.622C322.971 252.03 322.251 252.762 321.487 253.56Z" fill="#A92F4B" />
	<path d="M328.028 240.635L353.596 243.222L352.585 237.496H328.455L328.028 240.635Z" fill="#A92F4B" />
	<defs>
		<clipPath id="clip0_47_5277">
			<rect width="544.547" height="228.262" fill="white" transform="translate(0 69)" />
		</clipPath>
	</defs>
</svg>
