<svg xmlns="http://www.w3.org/2000/svg" xml:space="preserve" width="462" height="450" style="shape-rendering:geometricPrecision;text-rendering:geometricPrecision;image-rendering:optimizeQuality;fill-rule:evenodd;clip-rule:evenodd" viewBox="0 0 4879 4748.5"><defs><style>.fil2{fill:#4b4b4d}.fil6{fill:#212121}.fil5{fill:#f79f67}</style></defs><g id="Camada_x0020_1"><path d="M1203 4464h1132v-78c0-4-3-6-7-6h-494V3136h519c82 0 148-66 148-147v-134c0-81-66-148-148-148H1137c-81 0-148 67-148 148v134c0 81 67 147 148 147h567v1244h-494c-4 0-7 3-7 6v78z" style="fill:#727376;fill-rule:nonzero"/><path d="M2488 4189s369 266 305 445c0 0-403-174-452-312-49-137 8-197 8-197l139 64z" style="fill:#373435"/><path class="fil2" d="M2729 4535c-81-38-311-198-349-206-39-7-106 39-106 39s-17 29 1 80c12 35 39 80 97 132a825 825 0 0 0 478 167c47-7 43-50 12-98-28-43-79-89-133-114z"/><path d="M1556 670s323-201 1056 373c151 118 64 264 55 448-8 138 15 338 204 326-18 65-24 146 7 236-73 16-155 15-245-17a642 642 0 0 1-302-203c-187 194-385 403-430 560 0 0-395 129-804-176 0 0 8-183 55-444a700 700 0 0 0-225 322c-59-38-109-94-147-174-266-557 776-1251 776-1251z" style="fill:#5d5fef"/><path d="M1238 1690c-5 0-10-3-11-8-49-199 418-620 438-638 5-4 12-4 16 1 5 5 4 12 0 16-5 4-477 430-432 615a11 11 0 0 1-11 14z" style="fill:#4c4ede"/><path class="fil5" d="M2871 241s4 267-39 388-50 209-197 175c-25-6-49-14-71-25l-65 135c-19 40-58 66-102 70-148 11-214-72-242-129-14-29-10-63 10-87l202-245c-1-7 22-6 22-13 0 0-22-223 31-288s451 19 451 19zm546 1441c-105-73-224 0-224 0-141 92-245 131-322 135-18 65-24 146 7 236a606 606 0 0 0 319-206c18-21 49-25 70-8 22 18 43 41 40 66-8 49 49 65 53 47 5-18-19-123-19-123l158 158c45 45 101 0 101 0s-78-232-183-305z"/><path class="fil6" d="m2471 445 17 7s-10-176 64-175c73 0 342 54 433-12 87-63-15-74-71-134-3-4-9-4-13 0l-11 8c-7 6-17 0-16-9 1-8-9-14-16-9-27 19 13-75-116-103-182-39-322-18-374 98-3 7-12 8-17 1-9-13-28-25-64-13-63 19-86 128-19 254 3 6-1 14-7 15-24 4-63 21-8 89 57 70 101 83 119 86 5 1 10-2 12-7l37-106c1-5 8-8 13-6l37 16z"/><path class="fil5" d="M2466 468s23-160-58-146c-82 13-35 175 15 202l43-56z"/><path d="M2262 2140h3l1201-1a54 54 0 0 0-1-108l-1200 2a54 54 0 0 0-3 107z" style="fill:#727376"/><path d="M4545 1050H3545c-74 0-141 43-172 109l-463 980h1243c47 0 90-29 107-73l359-907a80 80 0 0 0-75-109z" style="fill:#848688"/><path class="fil5" d="M1969 1702s-572 222-711 55c-10-11-16-24-20-38a649 649 0 0 0-311 376c301 192 815-107 954-196 23-14 51-19 77-14 54 12 146 28 196 20 73-11 178 247 297 167 0 0-102-448-482-370zm464 2264-60 175c-10 26 0 56 23 71 12 7 28 14 50 19 31 7 63-7 78-35l72-136-163-94zm-228 288c1 23 46 99 73 142 13 21 35 33 59 33 15 0 33-1 49-5 24-7 37-33 30-57l-52-178-159 65z"/><ellipse transform="matrix(.77171 -.04993 -.17311 .78614 3909 1609)" rx="126.3" ry="174.2" style="fill:none;stroke:#bdbfc1;stroke-width:21.1;stroke-miterlimit:22.9256"/><path class="fil2" d="M1024 2256s-75 364 93 501c168 136 569 290 659 563 90 272 242 802 445 989 0 0 144-13 197-70 0 0-116-791-192-994-44-117-102-268-191-397 130 44 279 108 420 202 319 210-51 930-51 930 124 106 226 106 226 106s623-957 298-1257c-275-254-860-387-1033-422l6-14-877-137z"/><path d="M4792 2390h-326l-416 935 588 1321c11 25-1 54-27 65-6 2-13 4-20 4-19 0-38-12-46-30l-549-1237-550 1237a51 51 0 0 1-66 26 48 48 0 0 1-27-65l588-1321-416-936-2334 1-415 935 587 1321c11 25-1 54-26 65-7 2-14 4-20 4-20 0-38-12-47-30L721 3448 171 4685a51 51 0 0 1-66 26 48 48 0 0 1-26-65l587-1321-416-936-169 1c-27 0-50-21-55-51L1 2192c-3-16 1-32 10-44s22-19 37-19h4746c123 0 98 258 17 258l-19 2zm-796 811 360-812-721 1 361 811zm-3275 0 361-812-722 1 361 811z" style="fill:#00D39B"/><path class="fil5" d="M2485 476c10-47 15-108-17-130-55-37-137-18-120 92l6 28-181 293s70 172 283 186l106-270 256 59c1 0 110-516 109-524-18-132-370-47-370-47l-21 350-51-37z"/><path class="fil6" d="M2650 313c-11 7-19 19-21 32l-36 260-1 12c4 22 19 90 89 70 60-16 115-31 156-23 23 5 38 28 33 51-11 49-34 146-66 229-8 21-31 32-53 26-56-17-166-54-249-103-13-9-21-24-21-39 4-71 13-267 7-323l-5-20c11-48 20-116-15-139-36-24-85-25-108 10-6-36 2-84 70-108 22-7 34-32 27-54-13-39-15-97 57-128 72-33 127 3 158 35 14 14 36 19 53 9 8-4 17-5 28 0 21 11 46 4 57-17 19-36 57-73 128-60 131 23 145 169 110 254-36 85-176 52-247 9-52-32-119-1-151 17z"/></g></svg>