<?xml version="1.0" encoding="utf-8"?>
<!-- Generator: Adobe Illustrator 23.0.1, SVG Export Plug-In . SVG Version: 6.00 Build 0)  -->
<svg version="1.1" id="Camada_1" xmlns="http://www.w3.org/2000/svg" xmlns:xlink="http://www.w3.org/1999/xlink" x="0px" y="0px"
	 viewBox="0 0 356 389.5" style="enable-background:new 0 0 356 389.5;" xml:space="preserve">
<style type="text/css">
	.st0{fill:#21262D;}
	.st1{fill:#49E2E7;}
	.st2{fill:#FFFFFF;}
	.st3{fill:#AFFFE7;}
	.st4{fill:#B6D4FF;}
	.st5{fill:#D2FCF5;}
	.st6{fill:none;stroke:#49E2E7;stroke-width:5;}
	.st7{fill:none;stroke:#49E2E7;stroke-width:4;}
	.st8{fill:none;stroke:#49E2E7;stroke-width:6;}
	.st9{fill:#00B166;}
	.st10{fill:#7ED6E8;}
	.st11{fill:#00AC99;}
	.st12{fill:#04BC69;}
	.st13{fill:#5E93D1;}
	.st14{fill:#00DD80;}
	.st15{opacity:0.2;fill:none;stroke:#000000;stroke-width:5;enable-background:new    ;}
	.st16{fill:#78849E;}
	.st17{fill:#05CBB5;}
	.st18{fill:#006960;fill-opacity:0.1;}
</style>
<g>
	<path class="st0" d="M281.1,143.4c1.6,7.1,2.6,14.4,3,21.7c1.8,34.2-10.1,67.8-33,93.3c-22.9,25.5-55.1,40.8-89.3,42.6
		c-34.2,1.8-67.8-10.1-93.3-33C43,245,27.7,212.8,25.9,178.6c-0.9-17,1.6-33.9,7.2-49.9s14.4-30.7,25.8-43.3
		C70.3,72.7,84,62.5,99.3,55.1c15.3-7.3,31.9-11.5,48.9-12.4c7.3-0.4,14.6-0.2,21.8,0.7c6.6-7.5,14.6-13.5,23.5-17.8
		c8.9-4.3,18.7-6.8,28.6-7.3c19.8-1,39.2,5.8,53.9,19.1c14.7,13.3,23.6,31.8,24.6,51.6c0.5,9.9-0.9,19.8-4.3,29.2
		C293.1,127.5,287.9,136.1,281.1,143.4z"/>
</g>
<path class="st1" d="M158.3,228.5h49.3v-3.1h-49.3V228.5z"/>
<path class="st1" d="M205.9,187.2h49.3l-11.6,38.2h-49.3L205.9,187.2z"/>
<path class="st2" d="M251.8,189.7l-9.9,32.6h-44.1l9.9-32.6H251.8z"/>
<path class="st3" d="M243.7,199.7l-0.5,1.5H207l0.5-1.5H243.7z"/>
<path class="st3" d="M241.4,202.9l-0.5,1.6h-35l0.5-1.6H241.4z"/>
<path class="st3" d="M230.5,206.3l-3.3,11.7h-25.2l3.3-11.7H230.5z"/>
<path class="st3" d="M207.6,228.5h36v-3.1h-36V228.5z"/>
<path class="st3" d="M255.2,187.2h3l-11.6,38.2h-3L255.2,187.2z"/>
<path class="st3" d="M245.5,193.5l-0.5,1.5h-36.2l0.4-1.5H245.5z"/>
<path class="st3" d="M240.7,196.7l-0.5,1.6h-32.3l0.5-1.6H240.7z"/>
<path class="st4" d="M233.2,189.2L227,190l-0.5-0.8l0.3-0.7l-0.5-0.6l5.8-0.7l0.9,0.5l-0.7,0.7L233.2,189.2z"/>
<path class="st5" d="M168.1,228.9c-6.7-0.7-26.2-3-32-4.6c-7-1.9-21.1-12.9-21.1-12.9l12-13.1l13.5,11.8l29.2,7.1l0.4-0.1l-1.6,12
	C168.3,229,168.2,229,168.1,228.9z"/>
<path class="st6" d="M243,163.4h16"/>
<path class="st7" d="M297.8,185.3l-18.6,39.4"/>
<path class="st8" d="M297.8,185.3l-39.3-22.5"/>
<path class="st1" d="M291.2,228.4c0-1.5-0.6-3-1.7-4.1c-1.1-1.1-2.5-1.7-4.1-1.7H262c-1.5,0-3,0.6-4.1,1.7c-1.1,1.1-1.7,2.5-1.7,4.1
	H291.2"/>
<path class="st3" d="M257.7,176.5c0-3.9-1.6-7.6-4.3-10.4c-2.8-2.8-6.5-4.3-10.4-4.3s-7.6,1.6-10.4,4.3c-2.8,2.8-4.3,6.5-4.3,10.4"
	/>
<path class="st1" d="M154.5,373.3h3.3l20.3-135.1h-11.4L154.5,373.3z"/>
<path class="st1" d="M212.2,373.3h3.3l20.3-135.1h-11.4L212.2,373.3z"/>
<path class="st1" d="M141.1,238.3h186.3v-9.8H141.1V238.3z"/>
<path class="st3" d="M253.7,238.2h72.7v-9.8h-72.7V238.2z"/>
<path class="st3" d="M329.5,373.3h3.3l-12.2-135.1h-11.4L329.5,373.3z"/>
<path class="st3" d="M278.5,373.3h3.3l-12.2-135.1h-11.4L278.5,373.3z"/>
<path class="st9" d="M144.3,267v0.7c0,1.3-0.2,2.6-0.7,3.8c-0.5,1.2-1.2,2.3-2.1,3.3c-0.9,0.9-2,1.7-3.2,2.2
	c-1.2,0.5-2.5,0.8-3.8,0.8H58.4c-11.8,0-20.8-11.3-19.2-23.9l8.6-70.4c0.7-5.8,5.4-10.2,10.7-10.2h22.6c5.4,0,10,4.3,10.7,10.2
	l8.6,70.4c0.1,0.5,0.1,1,0.1,1.5h0c0,0,1.6,11.6,16.4,11.6H144.3z"/>
<path class="st10" d="M63.2,357.1c0,1.3-0.4,2.5-1.1,3.6c-0.7,1.1-1.7,1.9-2.9,2.4c-1.2,0.5-2.5,0.6-3.7,0.4
	c-1.3-0.3-2.4-0.9-3.3-1.8s-1.5-2.1-1.8-3.3c-0.3-1.3-0.1-2.6,0.4-3.7c0.5-1.2,1.3-2.2,2.4-2.9c1.1-0.7,2.3-1.1,3.6-1.1
	c0.9,0,1.7,0.2,2.5,0.5c0.8,0.3,1.5,0.8,2.1,1.4c0.6,0.6,1.1,1.3,1.4,2.1C63,355.4,63.2,356.3,63.2,357.1z"/>
<path class="st3" d="M122.5,358.4H58.3c-1.2,0-2.3-0.5-3.2-1.3c-0.8-0.8-1.3-2-1.3-3.2c0-1.2,0.5-2.3,1.3-3.2c0.8-0.8,2-1.3,3.2-1.3
	h64.3c1.2,0,2.3,0.5,3.2,1.3c0.8,0.8,1.3,2,1.3,3.2c0,1.2-0.5,2.3-1.3,3.2C124.8,357.9,123.7,358.4,122.5,358.4z"/>
<path class="st10" d="M87.1,356.3h6.6v-78.7h-6.6V356.3z"/>
<path class="st10" d="M113,277.5l-22.6,10.3l-22.6-10.3H113z"/>
<path class="st3" d="M90.9,358.4h-8.4c-1.2,0-2.3-0.5-3.2-1.3s-1.3-2-1.3-3.2c0-1.2,0.5-2.3,1.3-3.2c0.8-0.8,2-1.3,3.2-1.3h8.4
	c1.2,0,2.3,0.5,3.2,1.3c0.8,0.8,1.3,2,1.3,3.2c0,1.2-0.5,2.3-1.3,3.2C93.2,357.9,92.1,358.4,90.9,358.4z"/>
<path class="st10" d="M85.5,357.1c0,1.3-0.4,2.5-1.1,3.6s-1.7,1.9-2.9,2.4c-1.2,0.5-2.5,0.6-3.7,0.4c-1.3-0.3-2.4-0.9-3.3-1.8
	c-0.9-0.9-1.5-2.1-1.8-3.3c-0.3-1.3-0.1-2.6,0.4-3.7c0.5-1.2,1.3-2.2,2.4-2.9c1.1-0.7,2.3-1.1,3.6-1.1c0.9,0,1.7,0.2,2.5,0.5
	c0.8,0.3,1.5,0.8,2.1,1.4c0.6,0.6,1.1,1.3,1.4,2.1C85.3,355.4,85.5,356.3,85.5,357.1z"/>
<path class="st4" d="M131,357.1c0,1.3-0.4,2.5-1.1,3.6c-0.7,1.1-1.7,1.9-2.9,2.4c-1.2,0.5-2.5,0.6-3.7,0.4c-1.3-0.3-2.4-0.9-3.3-1.8
	c-0.9-0.9-1.5-2.1-1.8-3.3s-0.1-2.6,0.4-3.7c0.5-1.2,1.3-2.2,2.4-2.9c1.1-0.7,2.3-1.1,3.6-1.1c0.9,0,1.7,0.2,2.5,0.5
	c0.8,0.3,1.5,0.8,2.1,1.4c0.6,0.6,1.1,1.3,1.4,2.1C130.9,355.4,131,356.3,131,357.1z"/>
<path class="st11" d="M118.1,142.2c13.9-3.6,3.7-17,3.7-17L118.1,142.2z"/>
<path class="st5" d="M85.9,171.5l1.7-15.6c0,0-16.6-4.6-13.7-13.3c2.2-6.8,11.5-3,12.5,0l2.2-17.7l19.5-1.5l12.1,10.9
	c2.2,10.2-0.1,24.6-0.1,24.6c-3.1,1.6-17.8,0.4-17.8,0.4l0.3,11.8"/>
<path class="st11" d="M78.8,138.8c5.9,0.2,7.6,3.8,7.6,3.8c10-1.7,6.2-10.1,6.2-10.1c43.5,14.9,43.4-15.7,40.3-17
	c-3.1-1.3-8.6,7.9-8.6,7.9s-1.7-16.9-12.6-17c-7.7,0-10.5,11.6-10.5,11.6s-9.8-5.9-20.9,5.5C69.3,134.9,78.8,138.8,78.8,138.8z"/>
<path class="st11" d="M76.2,118.1l5.3,5.4l2.9-1.3l-1.4-7.7"/>
<path class="st12" d="M102.3,163.9l-9.6-6.5l9.7,2.1L102.3,163.9z"/>
<path class="st11" d="M109.8,149.9l4,0l-3.4-8.2L109.8,149.9z"/>
<path class="st11" d="M106.5,142.4c-0.1-0.4-0.3-0.8-0.5-1c-0.3-0.3-0.6-0.5-1-0.6c-0.4-0.1-0.8-0.1-1.2,0.1
	c-0.4,0.1-0.7,0.4-0.9,0.7c-0.2,0.3-0.4,0.7-0.4,1.1c0,0.4,0.1,0.8,0.3,1.1c0.2,0.3,0.5,0.6,0.9,0.8c0.4,0.2,0.8,0.2,1.2,0.1
	c0.3,0,0.5-0.1,0.7-0.3c0.2-0.1,0.4-0.3,0.6-0.5c0.2-0.2,0.3-0.5,0.3-0.7C106.6,143,106.6,142.7,106.5,142.4z"/>
<path class="st11" d="M117,142.4c-0.1-0.4-0.3-0.8-0.5-1s-0.6-0.5-1-0.6c-0.4-0.1-0.8,0-1.2,0.1c-0.4,0.1-0.7,0.4-0.9,0.7
	c-0.2,0.3-0.4,0.7-0.4,1.1c0,0.4,0.1,0.8,0.3,1.1c0.2,0.3,0.5,0.6,0.9,0.8c0.4,0.2,0.8,0.2,1.2,0.1c0.3,0,0.5-0.1,0.7-0.3
	c0.2-0.1,0.4-0.3,0.6-0.6c0.2-0.2,0.3-0.5,0.3-0.7C117.1,143,117.1,142.7,117,142.4z"/>
<path class="st2" d="M110.9,154.2c-1.5,0.3-3.1,0.1-4.6-0.4c-1.5-0.5-2.8-1.4-3.8-2.6"/>
<path class="st12" d="M110.9,154.2c-1.5,0.3-3.1,0.1-4.6-0.4c-1.5-0.5-2.8-1.4-3.8-2.6"/>
<path class="st5" d="M57.2,254.9l0.5-32.3l9.2-16.9l-16.8-9.4c0,0-8.3,17.4-8.6,25.2c-0.3,6.4,2.1,27.4,2.9,34.6
	c-0.3,0.5-0.5,1.1-0.7,1.7c-1.5,4.2-1.3,5.3-1.7,8.7c-0.4,3.2-0.2,6.4,0.8,9.4c0.7,2.4,1.5,4.5,1.9,4.4c1-0.2,1-1.5,1-1.5l-0.5-2.3
	l-0.2-2.2c0,0,3.5,9.9,3.8,9.9c1.1-0.2,1.2-1.9,1.2-1.9s1.1,3.4,1.7,3.3c0.4-0.1,0.8-0.4,1-0.7c0.2-0.3,0.3-0.8,0.3-1.2
	c0,0,0.4,0.4,0.8,0.3c1.4-0.4,1.2-2.9,1.2-4.1c-0.3-1.8-0.4-3.5-0.4-5.3c0.6-7,1.8-8.1,2.3-8.9c1.5,1,1.4,3.2,2.6,4.9
	c1.5,2.1,5.6,4.1,3.3-0.7c-2.1-4.3-1.7-5.9-2.6-8.6c-0.5-1.5-1.1-2.9-1.9-4.3L57.2,254.9L57.2,254.9z"/>
<path class="st5" d="M105.6,171.1c-2.6-0.8-5.3-1.4-7.9-1.7c-8.2-0.9-8.9-0.9-15-0.5c0.9,1.6,5,7.7,14.8,8.3
	C106.8,177.7,106.1,172.8,105.6,171.1z"/>
<path class="st13" d="M124.2,184.7c-4.1-7.4-11.2-11.6-18.6-13.6c-0.4-0.1,0-0.1,0.2,0.9c0.1,1-0.1,2-0.6,3
	c-0.7,0.8-1.6,1.4-2.6,1.7c-0.5,0.1-0.9,0.2-1.3,0.3c-0.8,0.1-1.6,0.2-2.4,0.2c-1.8,0-3.6-0.2-5.4-0.6c-0.6-0.1-1.3-0.3-1.9-0.6
	c-1.1-0.4-2.2-0.9-3.2-1.5c-1.1-0.6-2.1-1.3-3-2.2c-0.7-0.7-1.4-1.4-2-2.2c-0.4-0.6-0.4-0.6-0.5-0.7c-0.1-0.1-0.1-0.2-0.2-0.4
	c0-0.2,0.2-0.2-0.1-0.1c-4.3,0.4-8.5,1.6-12.3,3.4c-13.7,6.4-21.8,22.5-21.8,22.5l17,12.7l0.9,32.8h53.9l2-33.3l9.4-5.5l-6.6-15.2h0
	C124.8,185.8,124.5,185.3,124.2,184.7z"/>
<path class="st14" d="M124.2,184.7c-4.1-7.4-11.2-11.6-18.6-13.6c-0.4-0.1,0-0.1,0.2,0.9c0.1,1-0.1,2-0.6,3
	c-0.7,0.8-1.6,1.4-2.6,1.7c-0.5,0.1-0.9,0.2-1.3,0.3c-0.8,0.1-1.6,0.2-2.4,0.2c-1.8,0-3.6-0.2-5.4-0.6c-0.6-0.1-1.3-0.3-1.9-0.6
	c-1.1-0.4-2.2-0.9-3.2-1.5c-1.1-0.6-2.1-1.3-3-2.2c-0.7-0.7-1.4-1.4-2-2.2c-0.4-0.6-0.4-0.6-0.5-0.7c-0.1-0.1-0.1-0.2-0.2-0.4
	c0-0.2,0.2-0.2-0.1-0.1c-4.3,0.4-8.5,1.6-12.3,3.4c-13.7,6.4-21.8,22.5-21.8,22.5l17,12.7l0.9,32.8h53.9l2-33.3l9.4-5.5l-6.6-15.2h0
	C124.8,185.8,124.5,185.3,124.2,184.7z"/>
<path class="st15" d="M80.3,198.5l-10.4,12.1l-4.3-3"/>
<path class="st5" d="M197.9,223.7c0.1-0.4-3.3-1.4-3.3-1.4s1.7-0.1,1.9-1c0-0.2-9.8-3.2-9.8-3.2l2.2,0.2l2.3,0.4c0,0,1.2,0,1.5-0.8
	c0.1-0.3-1.9-1-4.3-1.6c-3.1-0.8-6.3-1-9.4-0.7c-3.4,0.3-4.5,0.1-8.8,1.3c-0.2,0.1-0.4,0.1-0.7,0.2l-2.2,10.7l1.7,0.8
	c1.4,0.6,2.8,1.2,4.2,1.6c2.7,0.8,4.3,0.5,8.6,2.2c4.8,1.9,2.9-1.5,0.8-2.7c-1.6-1-3.9-0.9-4.8-2.1c0.8-0.4,2-1.3,9-1.7
	c1.8,0.1,3.5,0.2,5.3,0.4c1.2,0,3.7,0.2,4.1-0.9c0.1-0.3-0.3-0.6-0.3-0.6S197.6,224.8,197.9,223.7z"/>
<path class="st2" d="M215,210.2l-0.9,3c0,0.1,0,0.2,0,0.3c0,0.1,0.1,0.2,0.1,0.2s0.1,0.1,0.2,0.1c0.1,0,0.2,0,0.2,0l3.4-1.5
	c0.1,0,0.1-0.1,0.2-0.2c0-0.1,0.1-0.1,0.1-0.2c0-0.1,0-0.2-0.1-0.2c0-0.1-0.1-0.1-0.2-0.2l-2.6-1.5c-0.1,0-0.1-0.1-0.2-0.1
	s-0.1,0-0.2,0c-0.1,0-0.1,0.1-0.2,0.1C215.1,210.1,215.1,210.1,215,210.2z"/>
<path class="st16" d="M171.3,341.2l-1.8,29.1h42.8c-7.3-8.7-28.8-12.3-28.8-12.3l0.1-10.2L171.3,341.2z M117.3,344.8l-1.2,12.1
	l-3.1,13.3h31c-3.9-11.3-13.5-12.6-13.5-12.6l0.1-12.1L117.3,344.8z"/>
<path class="st5" d="M170.3,357.4l13.3,0.6l0.1-10.2l-12.4-3.9L170.3,357.4z M116.1,356.9l14.4,0.7l0.1-12.1l-13.1-4.2L116.1,356.9z
	"/>
<path class="st17" d="M168.6,271.8l-1.1,80.4h22.9l10.8-82.5c0.4-3.6,0.1-7.3-1-10.9c-1.1-3.5-2.9-6.7-5.4-9.5
	c-2.4-2.7-5.4-4.9-8.8-6.4c-3.4-1.5-7-2.3-10.7-2.2h-107v9.6c0.1,5.8,2.4,11.3,6.5,15.3c4.1,4,9.6,6.3,15.4,6.2H118l-3.8,80.4h22.5
	l8.4-80.4H168.6z"/>
<path class="st18" d="M68.5,250.2c0.1,5.8,2.4,11.3,6.5,15.3c4.1,4,9.6,6.3,15.4,6.2H118l-3.8,80.4h22.5l9.7-92.9
	c0.2-2.4-0.1-4.7-0.8-7c-0.8-2.2-2-4.3-3.6-6.1c-1.6-1.7-3.6-3.1-5.7-4.1c-2.2-0.9-4.5-1.4-6.9-1.4H68.5L68.5,250.2L68.5,250.2z"/>
<path class="st14" d="M192.9,114.2c-20.4,0-36.9-16.5-36.9-36.9s16.5-36.9,36.9-36.9c20.4,0,36.9,16.5,36.9,36.9
	S213.3,114.2,192.9,114.2z"/>
<path class="st14" d="M162.6,91.3l-8.6,19.7l18.3-6.7L162.6,91.3z"/>
<path class="st2" d="M181.9,84.4l6.9-6.9l-3.7-3.7c-1.8-1.8-4.3-2.9-6.9-2.9c-2.6,0-5.1,1-6.9,2.9c-1.8,1.8-2.9,4.3-2.9,6.9
	c0,2.6,1,5.1,2.9,6.9l10.5,10.5c0.9,0.9,2,1.6,3.2,2.1c1.2,0.5,2.5,0.7,3.8,0.7c-1.9,0-3.8-0.6-5.4-1.7c-1.6-1.1-2.8-2.6-3.6-4.4
	c-0.7-1.8-0.9-3.8-0.5-5.7C179.6,87.6,180.6,85.8,181.9,84.4L181.9,84.4z"/>
<path class="st2" d="M214.6,65.7c-1.8-1.8-4.3-2.9-6.9-2.9s-5.1,1-6.9,2.9l-11.9,11.9l-6.9,6.9c-1.8,1.8-2.9,4.3-2.9,6.9
	c0,2.6,1,5.1,2.9,6.9c1.8,1.8,4.3,2.9,6.9,2.9c2.6,0,5.1-1,6.9-2.9l18.7-18.7c0.9-0.9,1.6-2,2.1-3.2c0.5-1.2,0.7-2.5,0.7-3.8
	c0-1.3-0.3-2.6-0.7-3.8C216.2,67.7,215.5,66.6,214.6,65.7z M212.8,78l-14.4,14.4l-4.5,4.5c-1.4,1.4-3.2,2.1-5.2,2.1
	c-1.9,0-3.8-0.8-5.2-2.1l-0.2-0.2c-1.4-1.4-2.1-3.2-2.1-5.2c0-1.9,0.8-3.8,2.1-5.2l7.1-7.1l11.8-11.8c1.4-1.4,3.2-2.1,5.2-2.1
	s3.8,0.8,5.2,2.1l0.2,0.2c0.7,0.7,1.2,1.5,1.6,2.4c0.4,0.9,0.6,1.8,0.6,2.8c0,1-0.2,1.9-0.6,2.8C214,76.5,213.5,77.4,212.8,78
	L212.8,78z"/>
<path class="st2" d="M188.8,97.2c3.2,0,5.8-2.6,5.8-5.8c0-3.2-2.6-5.8-5.8-5.8c-3.2,0-5.8,2.6-5.8,5.8
	C183,94.7,185.6,97.2,188.8,97.2z"/>
</svg>
